<?xml version="1.0" encoding="UTF-8" standalone="no"?>
<svg
   xmlns:dc="http://purl.org/dc/elements/1.1/"
   xmlns:cc="http://creativecommons.org/ns#"
   xmlns:rdf="http://www.w3.org/1999/02/22-rdf-syntax-ns#"
   xmlns:svg="http://www.w3.org/2000/svg"
   xmlns="http://www.w3.org/2000/svg"
   id="svg8"
   version="1.1"
   viewBox="0 0 203.65937 203.65938"
   height="203.65938mm"
   width="203.65938mm">
  <defs
     id="defs2" />
  <metadata
     id="metadata5">
    <rdf:RDF>
      <cc:Work
         rdf:about="">
        <dc:format>image/svg+xml</dc:format>
        <dc:type
           rdf:resource="http://purl.org/dc/dcmitype/StillImage" />
        <dc:title></dc:title>
      </cc:Work>
    </rdf:RDF>
  </metadata>
  <g
     transform="translate(510.3634,-50.14426)"
     id="layer1">
    <path
       id="path0-5"
       d="m -408.13684,84.240614 c -4.7625,0 -8.77623,1.67481 -12.03854,5.02709 -3.26228,3.35229 -4.89479,7.32104 -4.89479,11.906246 h -29.63333 c -2.82308,0 -4.23334,1.41022 -4.23334,4.23333 0,2.8231 1.41026,4.23333 4.23334,4.23333 h 1.32291 l -12.43541,50.8 h -1.32292 c 1.05831,4.93977 3.52695,8.99583 7.40833,12.17083 3.88142,3.175 8.37946,4.7625 13.49375,4.7625 5.11443,0 9.56998,-1.5875 13.36146,-4.7625 3.79151,-3.175 6.21776,-7.23106 7.27604,-12.17083 h -1.05833 l -12.7,-50.8 h 16.40417 c 1.5875,2.82313 3.70411,4.84981 6.35,6.08542 v 95.51458 h -29.63334 c -2.82307,0 -4.23333,1.41023 -4.23333,4.23333 0,2.82313 1.41026,4.23334 4.23333,4.23334 h 76.2 c 1.05836,0 2.02938,-0.39688 2.91042,-1.19063 0.88106,-0.79375 1.32292,-1.80708 1.32292,-3.04271 0,-1.2356 -0.44186,-2.24895 -1.32292,-3.0427 -0.88104,-0.79375 -1.85206,-1.19063 -2.91042,-1.19063 h -29.63333 v -95.51458 c 2.46862,-1.41023 4.49792,-3.43958 6.08542,-6.08542 h 15.875 l -12.43542,50.8 h -1.05833 c 0.88101,4.93977 3.26236,8.99583 7.14375,12.17083 3.88151,3.175 8.37935,4.7625 13.49375,4.7625 5.11439,0 9.61231,-1.5875 13.49375,-4.7625 3.88143,-3.175 6.26268,-7.23106 7.14375,-12.17083 h -1.05834 l -12.43541,-50.8 h 1.85208 c 1.05833,0 2.02935,-0.39687 2.91042,-1.19062 0.88106,-0.79375 1.32291,-1.80711 1.32291,-3.04271 0,-1.23561 -0.44185,-2.24896 -1.32291,-3.04271 -0.88107,-0.79375 -1.85209,-1.19062 -2.91042,-1.19062 h -29.63333 c 0,-4.585206 -1.67476,-8.553956 -5.02709,-11.906246 -3.35229,-3.35228 -7.32094,-5.02709 -11.90625,-5.02709 z m 0,8.46667 c 2.29402,0 4.27834,0.79375 5.95313,2.38125 1.67481,1.5875 2.51354,3.61685 2.51354,6.085416 0,2.46858 -0.83873,4.49791 -2.51354,6.08541 -1.67479,1.5875 -3.65911,2.38125 -5.95313,2.38125 -2.46848,0 -4.49791,-0.79375 -6.08541,-2.38125 -1.5875,-1.5875 -2.38125,-3.61683 -2.38125,-6.08541 0,-2.468566 0.79375,-4.497916 2.38125,-6.085416 1.5875,-1.5875 3.61693,-2.38125 6.08541,-2.38125 z m -41.01041,16.933326 h 5.55625 l 12.43541,50.8 h -30.42708 z m 75.93541,0 h 5.29167 l 12.43542,50.8 h -30.1625 z"
       style="fill:#000000;fill-rule:evenodd;stroke:none;stroke-width:0.26458332" />
  </g>
</svg>
