<?xml version="1.0" encoding="UTF-8" standalone="no"?>
<!-- Created with Inkscape (http://www.inkscape.org/) -->

<svg
   xmlns:dc="http://purl.org/dc/elements/1.1/"
   xmlns:cc="http://creativecommons.org/ns#"
   xmlns:rdf="http://www.w3.org/1999/02/22-rdf-syntax-ns#"
   xmlns:svg="http://www.w3.org/2000/svg"
   xmlns="http://www.w3.org/2000/svg"
   xmlns:sodipodi="http://sodipodi.sourceforge.net/DTD/sodipodi-0.dtd"
   xmlns:inkscape="http://www.inkscape.org/namespaces/inkscape"
   width="203.65938mm"
   height="203.65938mm"
   viewBox="0 0 203.65937 203.65938"
   version="1.1"
   id="svg8"
   sodipodi:docname="ic_inv.svg"
   inkscape:version="0.92.2 (5c3e80d, 2017-08-06)">
  <defs
     id="defs2" />
  <sodipodi:namedview
     id="base"
     pagecolor="#ffffff"
     bordercolor="#666666"
     borderopacity="1.0"
     inkscape:pageopacity="0.0"
     inkscape:pageshadow="2"
     inkscape:zoom="0.24748737"
     inkscape:cx="561.46162"
     inkscape:cy="192.24273"
     inkscape:document-units="mm"
     inkscape:current-layer="layer1"
     showgrid="false"
     inkscape:window-width="1920"
     inkscape:window-height="986"
     inkscape:window-x="-11"
     inkscape:window-y="-11"
     inkscape:window-maximized="1"
     fit-margin-top="0"
     fit-margin-left="0"
     fit-margin-right="0"
     fit-margin-bottom="0" />
  <metadata
     id="metadata5">
    <rdf:RDF>
      <cc:Work
         rdf:about="">
        <dc:format>image/svg+xml</dc:format>
        <dc:type
           rdf:resource="http://purl.org/dc/dcmitype/StillImage" />
        <dc:title></dc:title>
      </cc:Work>
    </rdf:RDF>
  </metadata>
  <g
     inkscape:label="Layer 1"
     inkscape:groupmode="layer"
     id="layer1"
     transform="translate(507.74777,-55.48965)">
    <rect
       style="opacity:1;fill:none;fill-opacity:1;stroke:#000000;stroke-width:0;stroke-linecap:square;stroke-linejoin:round;stroke-miterlimit:4;stroke-dasharray:none;stroke-dashoffset:0;stroke-opacity:1;paint-order:normal"
       id="rect4728"
       width="203.65938"
       height="203.65938"
       x="-507.74777"
       y="55.489651" />
    <g
       id="g4755"
       transform="translate(-67.251644,27.384971)">
      <path
         id="path0-0"
         transform="matrix(0.26458333,0,0,0.26458333,-222.91847,238.58872)"
         d="m -597.47266,-666.66211 c -9.32999,0 -17,3 -23,9 -6,6 -9,13.67001 -9,23 v 448 c 0,8.67001 3,16.17001 9,22.5 6,6.33003 13.67001,9.5 23,9.5 h 320 c 9.32999,0 17,-3.16997 23,-9.5 6,-6.32999 9,-13.82999 9,-22.5 v -448 c 0,-9.32999 -3,-17 -9,-23 -6,-6 -13.67001,-9 -23,-9 z m 0,32 h 320 v 448 h -320 z"
         style="fill:#000000;fill-rule:evenodd;stroke:none;stroke-width:0.99999994"
         inkscape:connector-curvature="0" />
      <path
         style="fill:#000000;fill-rule:evenodd;stroke:none;stroke-width:0.26458332"
         inkscape:connector-curvature="0"
         id="path2-4"
         d="m -309.03333,155.33452 h -16.93334 c -1.05833,0 -2.02935,0.39688 -2.91041,1.19063 -0.88107,0.79375 -1.32292,1.8071 -1.32292,3.04271 0,1.05833 0.44185,2.02935 1.32292,2.91041 0.88106,0.88107 1.85208,1.32292 2.91041,1.32292 h 16.93334 c 1.2356,0 2.24896,-0.44185 3.04271,-1.32292 0.79375,-0.88106 1.19062,-1.85208 1.19062,-2.91041 0,-2.82311 -1.41023,-4.23334 -4.23333,-4.23334 z" />
      <path
         style="fill:#000000;fill-rule:evenodd;stroke:none;stroke-width:0.26458332"
         inkscape:connector-curvature="0"
         id="path3-7"
         d="m -309.03333,121.46786 h -16.93334 c -1.05833,0 -2.02935,0.39687 -2.91041,1.19062 -0.88107,0.79375 -1.32292,1.8071 -1.32292,3.04271 0,1.05833 0.44185,2.02935 1.32292,2.91042 0.88106,0.88106 1.85208,1.32291 2.91041,1.32291 h 16.93334 c 1.2356,0 2.24896,-0.44185 3.04271,-1.32291 0.79375,-0.88107 1.19062,-1.85209 1.19062,-2.91042 0,-2.82311 -1.41023,-4.23333 -4.23333,-4.23333 z" />
      <path
         style="fill:#000000;fill-rule:evenodd;stroke:none;stroke-width:0.26458332"
         inkscape:connector-curvature="0"
         id="path4-3"
         d="m -309.03333,87.601191 h -16.93334 c -1.05833,0 -2.02935,0.39687 -2.91041,1.19062 -0.88107,0.79375 -1.32292,1.80711 -1.32292,3.04271 0,1.05833 0.44185,2.02935 1.32292,2.91042 0.88106,0.88106 1.85208,1.32291 2.91041,1.32291 h 16.93334 c 1.2356,0 2.24896,-0.44185 3.04271,-1.32291 0.79375,-0.88107 1.19062,-1.85209 1.19062,-2.91042 0,-2.8231 -1.41023,-4.23333 -4.23333,-4.23333 z" />
      <path
         style="fill:#000000;fill-rule:evenodd;stroke:none;stroke-width:0.26458332"
         inkscape:connector-curvature="0"
         id="path5-0"
         d="m -370.41667,172.79702 4.7625,4.7625 9.78959,-9.78958 9.525,9.78958 4.7625,-4.7625 -9.78959,-9.525 9.78959,-9.525 -4.7625,-4.7625 -9.525,9.78959 -9.78959,-9.78959 -4.7625,4.7625 9.78959,9.525 z" />
      <path
         style="fill:#000000;fill-rule:evenodd;stroke:none;stroke-width:0.26458332"
         inkscape:connector-curvature="0"
         id="path6-4"
         d="m -360.62708,139.72411 19.05,-19.57917 -4.7625,-5.02708 -14.2875,14.55208 -5.02709,-4.49792 -4.7625,4.7625 z" />
      <path
         style="fill:#000000;fill-rule:evenodd;stroke:none;stroke-width:0.26458332"
         inkscape:connector-curvature="0"
         id="path7"
         d="m -360.62708,105.85744 19.05,-19.314589 -4.7625,-5.02708 -14.2875,14.55208 -5.02709,-4.49791 -4.7625,5.02708 z" />
    </g>
  </g>
</svg>
