<?xml version="1.0" standalone="no"?>
<!DOCTYPE svg PUBLIC "-//W3C//DTD SVG 1.1//EN" "http://www.w3.org/Graphics/SVG/1.1/DTD/svg11.dtd" >
<svg xmlns="http://www.w3.org/2000/svg" xmlns:xlink="http://www.w3.org/1999/xlink" version="1.1" viewBox="-10 0 468 512">
  <g transform="matrix(1 0 0 -1 0 480)">
   <path fill="currentColor"
d="M438 54q10 -9 10 -22.5t-10 -22.5q-9 -9 -22 -9t-23 9l-117 118q-45 -31 -100 -31q-36 0 -68 13.5t-56 37.5t-38 56t-14 69q0 36 14 68t38 56t56 38t68 14t68 -14t56 -38t38 -56t14 -68q0 -28 -8.5 -53t-22.5 -47zM176 128q30 0 56 11t45.5 30.5t31 46t11.5 56.5
t-11.5 56t-31 45.5t-45.5 31t-56 11.5t-56.5 -11.5t-46 -31t-30.5 -45.5t-11 -56t11 -56.5t30.5 -46t46 -30.5t56.5 -11z" />
  </g>

</svg>
