<?xml version="1.0" encoding="UTF-8" standalone="no"?>
<!-- Created with Inkscape (http://www.inkscape.org/) -->

<svg
   xmlns:dc="http://purl.org/dc/elements/1.1/"
   xmlns:cc="http://creativecommons.org/ns#"
   xmlns:rdf="http://www.w3.org/1999/02/22-rdf-syntax-ns#"
   xmlns:svg="http://www.w3.org/2000/svg"
   xmlns="http://www.w3.org/2000/svg"
   xmlns:sodipodi="http://sodipodi.sourceforge.net/DTD/sodipodi-0.dtd"
   xmlns:inkscape="http://www.inkscape.org/namespaces/inkscape"
   width="203.65938mm"
   height="203.65938mm"
   viewBox="0 0 203.65937 203.65938"
   version="1.1"
   id="svg8"
   sodipodi:docname="ic_income.svg"
   inkscape:version="0.92.2 (5c3e80d, 2017-08-06)">
  <defs
     id="defs2" />
  <sodipodi:namedview
     id="base"
     pagecolor="#ffffff"
     bordercolor="#666666"
     borderopacity="1.0"
     inkscape:pageopacity="0.0"
     inkscape:pageshadow="2"
     inkscape:zoom="0.24748737"
     inkscape:cx="573.15197"
     inkscape:cy="167.99907"
     inkscape:document-units="mm"
     inkscape:current-layer="layer1"
     showgrid="false"
     inkscape:window-width="1920"
     inkscape:window-height="986"
     inkscape:window-x="-11"
     inkscape:window-y="-11"
     inkscape:window-maximized="1"
     fit-margin-top="0"
     fit-margin-left="0"
     fit-margin-right="0"
     fit-margin-bottom="0" />
  <metadata
     id="metadata5">
    <rdf:RDF>
      <cc:Work
         rdf:about="">
        <dc:format>image/svg+xml</dc:format>
        <dc:type
           rdf:resource="http://purl.org/dc/dcmitype/StillImage" />
        <dc:title></dc:title>
      </cc:Work>
    </rdf:RDF>
  </metadata>
  <g
     inkscape:label="Layer 1"
     inkscape:groupmode="layer"
     id="layer1"
     transform="translate(510.3634,-50.14426)">
    <rect
       style="opacity:1;fill:none;fill-opacity:1;stroke:#000000;stroke-width:0;stroke-linecap:square;stroke-linejoin:round;stroke-miterlimit:4;stroke-dasharray:none;stroke-dashoffset:0;stroke-opacity:1;paint-order:normal"
       id="rect4728"
       width="203.65938"
       height="203.65938"
       x="-510.3634"
       y="50.14426" />
    <g
       id="g4758"
       transform="translate(-78.188725,-150.3716)">
      <path
         id="path0-4"
         transform="matrix(0.26458333,0,0,0.26458333,-222.91847,238.58872)"
         d="m -630.02148,32.970703 c -9.33003,0 -17,3 -23,9 -6,6 -9,13.669972 -9,23 V 224.9707 c 0,5.33001 1.66997,10.67 5,16 -3.33003,5.33001 -5,10.67 -5,16 v 96 c 0,9.32999 3,17 9,23 6,6 13.66997,9 23,9 h 33 c 3.99998,18.67 13.32999,34 28,46 14.67001,12 31.66998,18 51,18 19.32997,0 36.32999,-6 51,-18 14.67001,-12 23.67001,-27.33 27,-46 h 67 c 4.00002,18.67 13.32999,34 28,46 14.66997,12 31.66998,18 51,18 19.32997,0 36.32999,-6 51,-18 14.66997,-12 23.66997,-27.33 27,-46 h 34 c 8.67001,0 16.17001,-3 22.5,-9 6.33002,-6 9.5,-13.67001 9.5,-23 v -96 c 0,-9.33003 -3.16998,-17 -9.5,-23 -6.32999,-6 -13.82999,-9 -22.5,-9 h -6 l -8,-53 c -2.66998,-15.32999 -7.82998,-29.50001 -15.5,-42.5 -7.66999,-12.99998 -17.17,-24.33 -28.5,-33.999997 -11.33001,-9.669997 -23.99999,-17.169997 -38,-22.5 -14.00002,-5.330003 -29.00002,-8 -45,-8 h -19 c 0,-9.330028 -3.16998,-17 -9.5,-23 -6.32999,-6 -13.82999,-9 -22.5,-9 z m 0,32 h 256 v 32 127.999997 h -256 z m 288,32 h 19 c 23.33,0 44,7.499997 62,22.499997 18,15 28.99997,34.17 33,57.5 l 8,48 h -122 z m -288,159.999997 h 256 192 v 96 h -34 c -3.33003,-18 -12.33003,-33.16997 -27,-45.5 -14.67001,-12.32999 -31.67003,-18.5 -51,-18.5 -19.33002,0 -36.33003,6.17001 -51,18.5 -14.67001,12.33003 -23.99998,27.5 -28,45.5 h -67 c -3.32999,-18 -12.32999,-33.16997 -27,-45.5 -14.67001,-12.32999 -31.67003,-18.5 -51,-18.5 -19.33002,0 -36.32999,6.17001 -51,18.5 -14.67001,12.33003 -24.00002,27.5 -28,45.5 h -33 z m 112,64 c 13.32997,0 24.67001,4.66997 34,14 9.32999,9.32999 14,20.66999 14,34 0,13.32998 -4.67001,24.67001 -14,34 -9.32999,9.33003 -20.67003,14 -34,14 -13.33002,0 -24.67001,-4.66997 -34,-14 -9.33003,-9.32999 -14,-20.67002 -14,-34 0,-13.33001 4.66997,-24.67001 14,-34 9.32999,-9.33003 20.66998,-14 34,-14 z m 224,0 c 13.32997,0 24.67001,4.66997 34,14 9.32999,9.32999 14,20.66999 14,34 0,13.32998 -4.67001,24.67001 -14,34 -9.32999,9.33003 -20.67003,14 -34,14 -13.33002,0 -24.67001,-4.66997 -34,-14 -9.32999,-9.32999 -14,-20.67002 -14,-34 0,-13.33001 4.67001,-24.67001 14,-34 9.32999,-9.33003 20.66998,-14 34,-14 z"
         style="fill:#000000;fill-rule:evenodd;stroke:none;stroke-width:0.99999994"
         inkscape:connector-curvature="0" />
    </g>
  </g>
</svg>
