<?xml version="1.0" encoding="UTF-8" standalone="no"?>
<svg
   xmlns:dc="http://purl.org/dc/elements/1.1/"
   xmlns:cc="http://creativecommons.org/ns#"
   xmlns:rdf="http://www.w3.org/1999/02/22-rdf-syntax-ns#"
   xmlns:svg="http://www.w3.org/2000/svg"
   xmlns="http://www.w3.org/2000/svg"
   id="svg5208"
   version="1.1"
   viewBox="0 0 21.509315 22.153769"
   height="22.153769mm"
   width="21.509315mm">
  <defs
     id="defs5202" />
  <metadata
     id="metadata5205">
    <rdf:RDF>
      <cc:Work
         rdf:about="">
        <dc:format>image/svg+xml</dc:format>
        <dc:type
           rdf:resource="http://purl.org/dc/dcmitype/StillImage" />
        <dc:title></dc:title>
      </cc:Work>
    </rdf:RDF>
  </metadata>
  <g
     transform="translate(-103.39418,-84.839783)"
     id="layer1">
    <path
       id="rect3701-6-9"
       style="fill:#00000f;fill-opacity:1;stroke:none;stroke-width:0.26458332;stroke-opacity:0.94117647"
       d="m 110.25888,84.972667 c -1.38468,-0.0019 -2.76917,-2.8e-4 -4.15323,0.01757 -1.63844,0.120782 -2.87958,1.740562 -2.69286,3.34915 0.0102,5.314017 -0.0205,10.629488 0.0155,15.942693 0.12078,1.63843 1.74056,2.87958 3.34915,2.69286 0.8487,-0.003 1.69776,-5.3e-4 2.54661,10e-4 -1.3781,-0.14723 -2.61579,-1.26992 -2.72076,-2.69389 -0.005,-0.76904 -0.007,-1.53823 -0.009,-2.30735 h -1.43144 V 87.974551 h 1.40973 c 0.022,-1.480257 1.19409,-2.872685 2.70837,-2.984314 0.96082,-0.01239 1.92184,-0.0156 2.88302,-0.01654 -0.63497,-9.18e-4 -1.26981,-1.84e-4 -1.90479,-0.001 z m -0.30644,22.002273 c -0.007,7.7e-4 -0.0134,2.9e-4 -0.0202,10e-4 0.72598,0.001 1.45174,0.001 2.17764,0 -0.71913,-10e-4 -1.43847,-0.004 -2.15749,-10e-4 z m 11.93239,-22.132638 c -2.76893,0.01004 -5.53913,-0.02025 -8.30725,0.01545 -1.63843,0.120782 -2.87947,1.740674 -2.69275,3.349262 0.0102,5.314018 -0.0205,10.629328 0.0155,15.942536 0.12078,1.63843 1.74067,2.87947 3.34926,2.69275 2.64736,-0.01 5.29599,0.0202 7.94254,-0.0155 1.63843,-0.12078 2.87947,-1.74068 2.69275,-3.34926 -0.0102,-5.314021 0.0205,-10.629331 -0.0154,-15.942539 -0.12485,-1.495847 -1.48289,-2.721751 -2.98455,-2.69275 z m -2,19.999998 c -1.33333,0 -2.66666,0 -4,0 0.0762,-0.29766 -0.15595,-0.90366 0.12157,-1 1.29281,0 2.58562,0 3.87843,0 0,0.33334 0,0.66667 0,1 z m 3.25,-3 c -3.5,0 -7,0 -10.5,0 0,-4.666664 0,-9.333331 0,-13.999998 3.5,0 7,0 10.5,0 0,4.666667 0,9.333334 0,13.999998 z m -9.09257,-16.869636 c -1.38468,-0.0019 -2.76917,-2.8e-4 -4.15323,0.01757 -1.63844,0.120782 -2.87958,1.740562 -2.69286,3.34915 0.0102,5.314017 -0.0205,10.629489 0.0155,15.942696 0.12078,1.63843 1.74056,2.87958 3.34915,2.69286 0.8487,-0.003 1.69776,-5.3e-4 2.54661,10e-4 -1.3781,-0.14724 -2.61579,-1.26993 -2.72076,-2.69389 -0.005,-0.76905 -0.007,-1.53823 -0.009,-2.30736 h -1.43144 V 87.974548 h 1.40973 c 0.022,-1.480257 1.19409,-2.872685 2.70837,-2.984314 0.96081,-0.01239 1.92184,-0.0156 2.88302,-0.01654 -0.63497,-9.18e-4 -1.26981,-1.84e-4 -1.90479,-10e-4 z m -0.30644,22.002276 c -0.007,7.7e-4 -0.0134,2.9e-4 -0.0202,10e-4 0.72598,0.001 1.45174,0.001 2.17765,0 -0.71914,-10e-4 -1.43848,-0.004 -2.1575,-10e-4 z" />
  </g>
</svg>
