<?xml version="1.0" encoding="UTF-8" standalone="no"?>
<!-- Created with Inkscape (http://www.inkscape.org/) -->

<svg
   xmlns:dc="http://purl.org/dc/elements/1.1/"
   xmlns:cc="http://creativecommons.org/ns#"
   xmlns:rdf="http://www.w3.org/1999/02/22-rdf-syntax-ns#"
   xmlns:svg="http://www.w3.org/2000/svg"
   xmlns="http://www.w3.org/2000/svg"
   xmlns:sodipodi="http://sodipodi.sourceforge.net/DTD/sodipodi-0.dtd"
   xmlns:inkscape="http://www.inkscape.org/namespaces/inkscape"
   width="203.65938mm"
   height="203.65938mm"
   viewBox="0 0 203.65937 203.65938"
   version="1.1"
   id="svg8"
   sodipodi:docname="ic_printer.svg"
   inkscape:version="0.92.2 (5c3e80d, 2017-08-06)">
  <defs
     id="defs2" />
  <sodipodi:namedview
     id="base"
     pagecolor="#ffffff"
     bordercolor="#666666"
     borderopacity="1.0"
     inkscape:pageopacity="0.0"
     inkscape:pageshadow="2"
     inkscape:zoom="0.24748737"
     inkscape:cx="587.4706"
     inkscape:cy="218.44312"
     inkscape:document-units="mm"
     inkscape:current-layer="layer1"
     showgrid="false"
     inkscape:window-width="1920"
     inkscape:window-height="986"
     inkscape:window-x="-11"
     inkscape:window-y="-11"
     inkscape:window-maximized="1"
     fit-margin-top="0"
     fit-margin-left="0"
     fit-margin-right="0"
     fit-margin-bottom="0" />
  <metadata
     id="metadata5">
    <rdf:RDF>
      <cc:Work
         rdf:about="">
        <dc:format>image/svg+xml</dc:format>
        <dc:type
           rdf:resource="http://purl.org/dc/dcmitype/StillImage" />
        <dc:title></dc:title>
      </cc:Work>
    </rdf:RDF>
  </metadata>
  <g
     inkscape:label="Layer 1"
     inkscape:groupmode="layer"
     id="layer1"
     transform="translate(508.57813,-55.748508)">
    <rect
       style="opacity:1;fill:none;fill-opacity:1;stroke:#000000;stroke-width:0;stroke-linecap:square;stroke-linejoin:round;stroke-miterlimit:4;stroke-dasharray:none;stroke-dashoffset:0;stroke-opacity:1;paint-order:normal"
       id="rect4728"
       width="203.65938"
       height="203.65938"
       x="-508.57812"
       y="55.748508" />
    <g
       id="g4734"
       transform="translate(-51.235998,236.10294)">
      <path
         id="path0"
         transform="matrix(0.26458333,0,0,0.26458333,-222.91847,238.58872)"
         d="m -629.14258,-1454.5391 c -9.32999,0 -17,3.17 -23,9.5 -6,6.3301 -9,13.83 -9,22.5 v 64 h -64 c -9.32999,0 -17,3.17 -23,9.5 -6,6.3301 -9,13.83 -9,22.5 v 160 c 0,9.33 3,17 9,23 6,6 13.67001,9 23,9 h 32 32 v 160.00004 c 0,9.32999 3,17 9,23 6,6 13.67001,9 23,9 h 256 c 8.67001,0 16.17001,-3 22.5,-9 6.33003,-6 9.5,-13.67001 9.5,-23 v -160.00004 h 64 c 8.67001,0 16.17001,-3 22.5,-9 6.33003,-6 9.5,-13.67 9.5,-23 v -160 c 0,-8.67 -3.16997,-16.1699 -9.5,-22.5 -6.32999,-6.33 -13.82999,-9.5 -22.5,-9.5 h -64 v -64 c 0,-8.67 -3.16997,-16.1699 -9.5,-22.5 -6.32999,-6.33 -13.82999,-9.5 -22.5,-9.5 z m 0,32 h 256 v 64 h -256 z m -96,96 h 448 v 160 h -64 v -32 c 0,-8.67 -3.16997,-16.17 -9.5,-22.5 -6.32999,-6.33 -13.82999,-9.5 -22.5,-9.5 h -256 c -9.32999,0 -17,3.17 -23,9.5 -6,6.33 -9,13.83 -9,22.5 v 32 h -64 z m 96,128 h 256 v 32 32 160.00004 h -256 v -160.00004 -32 z"
         style="fill:#000000;fill-rule:evenodd;stroke:none;stroke-width:0.99999994"
         inkscape:connector-curvature="0" />
      <path
         style="fill:#000000;fill-rule:evenodd;stroke:none;stroke-width:0.26458332"
         inkscape:connector-curvature="0"
         id="path3"
         d="m -372.44585,-61.591581 v 8.46667 h 33.86667 v -8.46667 z" />
      <path
         style="fill:#000000;fill-rule:evenodd;stroke:none;stroke-width:0.26458332"
         inkscape:connector-curvature="0"
         id="path4"
         d="m -372.44585,-44.658241 v 8.46667 h 33.86667 v -8.46667 z" />
      <path
         style="fill:#000000;fill-rule:evenodd;stroke:none;stroke-width:0.26458332"
         inkscape:connector-curvature="0"
         id="path6"
         d="m -325.87918,-95.458241 h 16.93333 c 2.8231,0 4.23333,-1.41023 4.23333,-4.23333 0,-1.058329 -0.39687,-2.029359 -1.19062,-2.910419 -0.79375,-0.88106 -1.80711,-1.32291 -3.04271,-1.32291 h -16.93333 c -1.23561,0 -2.24896,0.44185 -3.04271,1.32291 -0.79375,0.88106 -1.19062,1.85209 -1.19062,2.910419 0,2.8231 1.41022,4.23333 4.23333,4.23333 z" />
    </g>
  </g>
</svg>
