<?xml version="1.0" encoding="UTF-8" standalone="no"?>
<svg
   xmlns:dc="http://purl.org/dc/elements/1.1/"
   xmlns:cc="http://creativecommons.org/ns#"
   xmlns:rdf="http://www.w3.org/1999/02/22-rdf-syntax-ns#"
   xmlns:svg="http://www.w3.org/2000/svg"
   xmlns="http://www.w3.org/2000/svg"
   id="svg5242"
   version="1.1"
   viewBox="0 0 14.037222 22.021132"
   height="22.021132mm"
   width="14.037222mm">
  <defs
     id="defs5236" />
  <metadata
     id="metadata5239">
    <rdf:RDF>
      <cc:Work
         rdf:about="">
        <dc:format>image/svg+xml</dc:format>
        <dc:type
           rdf:resource="http://purl.org/dc/dcmitype/StillImage" />
        <dc:title></dc:title>
      </cc:Work>
    </rdf:RDF>
  </metadata>
  <g
     transform="translate(-43.630198,-90.953721)"
     id="layer1">
    <path
       id="rect3701-2-6-5"
       d="m 54.648812,90.95624 c -2.768928,0.01004 -5.539128,-0.02025 -8.307251,0.01545 -1.638435,0.120782 -2.879467,1.740674 -2.69275,3.349262 0.01025,5.314019 -0.02053,10.629328 0.01545,15.942538 0.120782,1.63843 1.740675,2.87946 3.349264,2.69275 2.647358,-0.01 5.295984,0.0202 7.942534,-0.0154 1.638434,-0.12078 2.879466,-1.74068 2.692749,-3.34926 -0.01024,-5.31402 0.02053,-10.629331 -0.01545,-15.94254 -0.124852,-1.495847 -1.482885,-2.721751 -2.984546,-2.69275 z m -1.999999,20 c -1.333333,0 -2.666667,0 -4,0 0.0762,-0.29766 -0.15595,-0.90366 0.121572,-1 1.292809,0 2.585619,0 3.878428,0 0,0.33333 0,0.66667 0,1 z m 3.249999,-3 c -3.499999,0 -6.999999,0 -10.5,0 0,-4.66667 0,-9.333332 0,-14 3.500001,0 7.000001,0 10.5,0 0,4.666668 0,9.33333 0,14 z"
       style="opacity:1;fill:#00000f;fill-opacity:1;stroke:none;stroke-width:0.26499999;stroke-linejoin:round;stroke-miterlimit:4;stroke-dasharray:none;stroke-opacity:1;paint-order:normal" />
  </g>
</svg>
