<?xml version="1.0" encoding="UTF-8" standalone="no"?>
<svg
   xmlns:dc="http://purl.org/dc/elements/1.1/"
   xmlns:cc="http://creativecommons.org/ns#"
   xmlns:rdf="http://www.w3.org/1999/02/22-rdf-syntax-ns#"
   xmlns:svg="http://www.w3.org/2000/svg"
   xmlns="http://www.w3.org/2000/svg"
   id="svg8"
   version="1.1"
   viewBox="0 0 203.65937 203.65938"
   height="203.65938mm"
   width="203.65938mm">
  <defs
     id="defs2" />
  <metadata
     id="metadata5">
    <rdf:RDF>
      <cc:Work
         rdf:about="">
        <dc:format>image/svg+xml</dc:format>
        <dc:type
           rdf:resource="http://purl.org/dc/dcmitype/StillImage" />
        <dc:title></dc:title>
      </cc:Work>
    </rdf:RDF>
  </metadata>
  <g
     transform="translate(510.3634,-50.14426)"
     id="layer1">
    <path
       id="path0-2"
       d="m -417.00038,84.240614 c -2.46857,0 -4.49792,0.79375 -6.08542,2.38125 -1.5875,1.5875 -2.38125,3.61686 -2.38125,6.08542 v 7.408326 c -1.41023,0.3519 -2.73313,0.83873 -3.96876,1.45521 -1.23557,0.61648 -2.46853,1.19063 -3.70416,1.71979 l -5.29167,-5.291656 c -1.5875,-1.5875 -3.61685,-2.38125 -6.08542,-2.38125 -2.29393,0 -4.23333,0.79375 -5.82083,2.38125 l -12.17083,12.170826 c -1.5875,1.5875 -2.38125,3.52689 -2.38125,5.82083 0,2.29394 0.79375,4.32065 2.38125,6.08542 l 5.29166,5.29167 c -0.52916,1.23563 -1.10331,2.46856 -1.71979,3.70416 -0.61648,1.23561 -1.10328,2.55852 -1.45521,3.96875 h -7.40833 c -2.46856,0 -4.49791,0.79375 -6.08541,2.38125 -1.5875,1.5875 -2.38125,3.61686 -2.38125,6.08542 v 16.93333 c 0,2.29394 0.79375,4.27831 2.38125,5.95313 1.5875,1.67484 3.61685,2.51354 6.08541,2.51354 h 7.40833 c 0.35193,1.41023 0.83873,2.73314 1.45521,3.96875 0.61648,1.2356 1.19063,2.46856 1.71979,3.70416 l -5.29166,5.29167 c -1.5875,1.5875 -2.38125,3.57188 -2.38125,5.95313 0,2.38125 0.79375,4.36562 2.38125,5.95312 l 12.17083,12.17083 c 1.5875,1.5875 3.5269,2.38125 5.82083,2.38125 2.46857,0 4.49792,-0.79375 6.08542,-2.38125 l 5.29167,-5.55625 c 1.23563,0.70644 2.46859,1.32292 3.70416,1.85209 1.23563,0.52916 2.55853,1.05833 3.96876,1.5875 v 7.40833 c 0,2.29394 0.79375,4.27831 2.38125,5.95313 1.5875,1.67483 3.61685,2.51354 6.08542,2.51354 h 16.93333 c 2.46856,0 4.49792,-0.83871 6.08542,-2.51354 1.5875,-1.67482 2.38125,-3.65919 2.38125,-5.95313 v -7.40833 c 1.41023,-0.52917 2.73314,-1.05834 3.96875,-1.5875 1.2356,-0.52917 2.46857,-1.14565 3.70417,-1.85209 l 5.29166,5.55625 c 1.5875,1.5875 3.61685,2.38125 6.08542,2.38125 2.29393,0 4.23333,-0.79375 5.82083,-2.38125 l 12.17083,-12.17083 c 1.5875,-1.5875 2.38125,-3.57187 2.38125,-5.95312 0,-2.38125 -0.79375,-4.36563 -2.38125,-5.95313 l -5.29166,-5.29167 c 0.52916,-1.2356 1.05833,-2.46856 1.5875,-3.70416 0.52916,-1.23561 1.05833,-2.55852 1.5875,-3.96875 h 7.40833 c 2.46856,0 4.49792,-0.8387 6.08542,-2.51354 1.5875,-1.67482 2.38125,-3.65919 2.38125,-5.95313 v -16.93333 c 0,-2.46856 -0.79375,-4.49792 -2.38125,-6.08542 -1.5875,-1.5875 -3.61686,-2.38125 -6.08542,-2.38125 h -7.40833 c -0.52917,-1.41023 -1.05834,-2.73314 -1.5875,-3.96875 -0.52917,-1.2356 -1.05834,-2.46853 -1.5875,-3.70416 l 5.29166,-5.29167 c 1.5875,-1.76477 2.38125,-3.79148 2.38125,-6.08542 0,-2.29394 -0.79375,-4.23333 -2.38125,-5.82083 l -12.17083,-12.170826 c -1.5875,-1.5875 -3.5269,-2.38125 -5.82083,-2.38125 -2.46857,0 -4.49792,0.79375 -6.08542,2.38125 l -5.29166,5.291656 c -1.2356,-0.52916 -2.46857,-1.10331 -3.70417,-1.71979 -1.23561,-0.61648 -2.55852,-1.10331 -3.96875,-1.45521 v -7.408326 c 0,-2.46856 -0.79375,-4.49792 -2.38125,-6.08542 -1.5875,-1.5875 -3.61686,-2.38125 -6.08542,-2.38125 z m 0,8.46667 h 16.93333 v 7.408326 6.08542 l 5.82084,2.11667 c 1.05834,0.35189 2.11667,0.74877 3.175,1.19062 1.05834,0.44185 2.11667,0.92604 3.175,1.45521 l 5.55625,2.64583 4.49791,-4.23333 5.29167,-5.29167 11.90625,11.90625 -5.29167,5.29167 -4.49791,4.49792 2.91041,5.29166 c 0.52917,1.05834 1.01335,2.16167 1.45521,3.30729 0.44185,1.14565 0.83874,2.24896 1.19063,3.3073 l 1.85208,5.82083 h 6.35 7.40833 v 16.93333 h -7.40833 -6.35 l -1.85208,5.82083 c -0.35189,1.05836 -0.74878,2.11667 -1.19063,3.175 -0.44186,1.05836 -0.92604,2.11667 -1.45521,3.175 l -2.91041,5.55625 4.49791,4.49792 5.29167,5.29167 -11.90625,11.90625 -5.29167,-5.29167 -4.49791,-4.49792 -5.55625,2.91042 c -1.05833,0.52917 -2.11666,1.01336 -3.175,1.45521 -1.05833,0.44185 -2.11666,0.83875 -3.175,1.19062 l -5.82084,1.85209 v 6.35 7.40833 h -16.93333 v -7.40833 -6.35 l -5.82083,-1.85209 c -1.05833,-0.35187 -2.16164,-0.74877 -3.3073,-1.19062 -1.14563,-0.44185 -2.24894,-0.92604 -3.3073,-1.45521 l -5.29166,-2.91042 -4.49792,4.49792 -5.29167,5.29167 -11.90625,-11.90625 5.29167,-5.29167 4.23333,-4.49792 -2.64583,-5.55625 c -0.52917,-1.05833 -1.01335,-2.11664 -1.45521,-3.175 -0.44185,-1.05833 -0.8387,-2.11664 -1.19062,-3.175 l -2.11667,-5.82083 h -6.08542 -7.40833 v -16.93333 h 7.40833 6.08542 l 2.11667,-5.82083 c 0.35192,-1.05834 0.74877,-2.16165 1.19062,-3.3073 0.44186,-1.14562 0.92604,-2.24895 1.45521,-3.30729 l 2.64583,-5.29166 -4.23333,-4.49792 -5.29167,-5.29167 11.90625,-11.90625 5.29167,5.29167 4.49792,4.23333 5.29166,-2.64583 c 1.05836,-0.52917 2.16167,-1.01336 3.3073,-1.45521 1.14566,-0.44185 2.24897,-0.83873 3.3073,-1.19062 l 5.82083,-2.11667 v -6.08542 z m 8.46667,33.866666 c -7.05643,0 -13.0519,2.46856 -17.99167,7.40833 -4.93978,4.93977 -7.40834,10.93525 -7.40834,17.99166 0,7.05644 2.46856,13.0519 7.40834,17.99167 4.93977,4.93977 10.93524,7.40833 17.99167,7.40833 7.05644,0 13.05189,-2.46856 17.99166,-7.40833 4.93977,-4.93977 7.40834,-10.93523 7.40834,-17.99167 0,-7.05641 -2.46857,-13.05189 -7.40834,-17.99166 -4.93977,-4.93977 -10.93522,-7.40833 -17.99166,-7.40833 z m 0,8.46666 c 4.58523,0 8.55398,1.67481 11.90625,5.02709 3.35227,3.35227 5.02708,7.32102 5.02708,11.90624 0,4.58523 -1.67481,8.55398 -5.02708,11.90625 -3.35227,3.35228 -7.32102,5.02709 -11.90625,5.02709 -4.58523,0 -8.55398,-1.67481 -11.90625,-5.02709 -3.35227,-3.35227 -5.02709,-7.32102 -5.02709,-11.90625 0,-4.58522 1.67482,-8.55397 5.02709,-11.90624 3.35227,-3.35228 7.32102,-5.02709 11.90625,-5.02709 z"
       style="fill:#000000;fill-rule:evenodd;stroke:none;stroke-width:0.26458332" />
  </g>
</svg>
