<?xml version="1.0" encoding="UTF-8" standalone="no"?>
<!-- Created with Inkscape (http://www.inkscape.org/) -->

<svg
   xmlns:dc="http://purl.org/dc/elements/1.1/"
   xmlns:cc="http://creativecommons.org/ns#"
   xmlns:rdf="http://www.w3.org/1999/02/22-rdf-syntax-ns#"
   xmlns:svg="http://www.w3.org/2000/svg"
   xmlns="http://www.w3.org/2000/svg"
   xmlns:sodipodi="http://sodipodi.sourceforge.net/DTD/sodipodi-0.dtd"
   xmlns:inkscape="http://www.inkscape.org/namespaces/inkscape"
   width="203.65938mm"
   height="203.65938mm"
   viewBox="0 0 203.65937 203.65938"
   version="1.1"
   id="svg8"
   sodipodi:docname="icons.svg"
   inkscape:version="0.92.2 (5c3e80d, 2017-08-06)">
  <defs
     id="defs2" />
  <sodipodi:namedview
     id="base"
     pagecolor="#ffffff"
     bordercolor="#666666"
     borderopacity="1.0"
     inkscape:pageopacity="0.0"
     inkscape:pageshadow="2"
     inkscape:zoom="0.24748737"
     inkscape:cx="310.6956"
     inkscape:cy="73.282958"
     inkscape:document-units="mm"
     inkscape:current-layer="layer1"
     showgrid="false"
     inkscape:window-width="1920"
     inkscape:window-height="1017"
     inkscape:window-x="1912"
     inkscape:window-y="-8"
     inkscape:window-maximized="1"
     fit-margin-top="0"
     fit-margin-left="0"
     fit-margin-right="0"
     fit-margin-bottom="0" />
  <metadata
     id="metadata5">
    <rdf:RDF>
      <cc:Work
         rdf:about="">
        <dc:format>image/svg+xml</dc:format>
        <dc:type
           rdf:resource="http://purl.org/dc/dcmitype/StillImage" />
        <dc:title></dc:title>
      </cc:Work>
    </rdf:RDF>
  </metadata>
  <g
     inkscape:label="Layer 1"
     inkscape:groupmode="layer"
     id="layer1"
     transform="translate(510.3634,-50.14426)">
    <rect
       style="opacity:1;fill:none;fill-opacity:1;stroke:#000000;stroke-width:0;stroke-linecap:square;stroke-linejoin:round;stroke-miterlimit:4;stroke-dasharray:none;stroke-dashoffset:0;stroke-opacity:1;paint-order:normal"
       id="rect4728"
       width="203.65938"
       height="203.65938"
       x="-822.23315"
       y="54.957451" />
    <g
       id="g4734"
       transform="translate(-696.12882,55.42874)">
      <path
         id="path0"
         transform="matrix(0.26458333,0,0,0.26458333,-222.91847,238.58872)"
         d="m -629.14258,-1454.5391 c -9.32999,0 -17,3.17 -23,9.5 -6,6.3301 -9,13.83 -9,22.5 v 64 h -64 c -9.32999,0 -17,3.17 -23,9.5 -6,6.3301 -9,13.83 -9,22.5 v 160 c 0,9.33 3,17 9,23 6,6 13.67001,9 23,9 h 32 32 v 160.00004 c 0,9.32999 3,17 9,23 6,6 13.67001,9 23,9 h 256 c 8.67001,0 16.17001,-3 22.5,-9 6.33003,-6 9.5,-13.67001 9.5,-23 v -160.00004 h 64 c 8.67001,0 16.17001,-3 22.5,-9 6.33003,-6 9.5,-13.67 9.5,-23 v -160 c 0,-8.67 -3.16997,-16.1699 -9.5,-22.5 -6.32999,-6.33 -13.82999,-9.5 -22.5,-9.5 h -64 v -64 c 0,-8.67 -3.16997,-16.1699 -9.5,-22.5 -6.32999,-6.33 -13.82999,-9.5 -22.5,-9.5 z m 0,32 h 256 v 64 h -256 z m -96,96 h 448 v 160 h -64 v -32 c 0,-8.67 -3.16997,-16.17 -9.5,-22.5 -6.32999,-6.33 -13.82999,-9.5 -22.5,-9.5 h -256 c -9.32999,0 -17,3.17 -23,9.5 -6,6.33 -9,13.83 -9,22.5 v 32 h -64 z m 96,128 h 256 v 32 32 160.00004 h -256 v -160.00004 -32 z"
         style="fill:#000000;fill-rule:evenodd;stroke:none;stroke-width:0.99999994"
         inkscape:connector-curvature="0" />
      <path
         style="fill:#000000;fill-rule:evenodd;stroke:none;stroke-width:0.26458332"
         inkscape:connector-curvature="0"
         id="path3"
         d="m -372.44585,-61.591581 v 8.46667 h 33.86667 v -8.46667 z" />
      <path
         style="fill:#000000;fill-rule:evenodd;stroke:none;stroke-width:0.26458332"
         inkscape:connector-curvature="0"
         id="path4"
         d="m -372.44585,-44.658241 v 8.46667 h 33.86667 v -8.46667 z" />
      <path
         style="fill:#000000;fill-rule:evenodd;stroke:none;stroke-width:0.26458332"
         inkscape:connector-curvature="0"
         id="path6"
         d="m -325.87918,-95.458241 h 16.93333 c 2.8231,0 4.23333,-1.41023 4.23333,-4.23333 0,-1.058329 -0.39687,-2.029359 -1.19062,-2.910419 -0.79375,-0.88106 -1.80711,-1.32291 -3.04271,-1.32291 h -16.93333 c -1.23561,0 -2.24896,0.44185 -3.04271,1.32291 -0.79375,0.88106 -1.19062,1.85209 -1.19062,2.910419 0,2.8231 1.41022,4.23333 4.23333,4.23333 z" />
    </g>
    <g
       id="g4755"
       transform="translate(-699.32227,27.130768)">
      <path
         id="path0-0"
         transform="matrix(0.26458333,0,0,0.26458333,-222.91847,238.58872)"
         d="m -597.47266,-666.66211 c -9.32999,0 -17,3 -23,9 -6,6 -9,13.67001 -9,23 v 448 c 0,8.67001 3,16.17001 9,22.5 6,6.33003 13.67001,9.5 23,9.5 h 320 c 9.32999,0 17,-3.16997 23,-9.5 6,-6.32999 9,-13.82999 9,-22.5 v -448 c 0,-9.32999 -3,-17 -9,-23 -6,-6 -13.67001,-9 -23,-9 z m 0,32 h 320 v 448 h -320 z"
         style="fill:#000000;fill-rule:evenodd;stroke:none;stroke-width:0.99999994"
         inkscape:connector-curvature="0" />
      <path
         style="fill:#000000;fill-rule:evenodd;stroke:none;stroke-width:0.26458332"
         inkscape:connector-curvature="0"
         id="path2-4"
         d="m -309.03333,155.33452 h -16.93334 c -1.05833,0 -2.02935,0.39688 -2.91041,1.19063 -0.88107,0.79375 -1.32292,1.8071 -1.32292,3.04271 0,1.05833 0.44185,2.02935 1.32292,2.91041 0.88106,0.88107 1.85208,1.32292 2.91041,1.32292 h 16.93334 c 1.2356,0 2.24896,-0.44185 3.04271,-1.32292 0.79375,-0.88106 1.19062,-1.85208 1.19062,-2.91041 0,-2.82311 -1.41023,-4.23334 -4.23333,-4.23334 z" />
      <path
         style="fill:#000000;fill-rule:evenodd;stroke:none;stroke-width:0.26458332"
         inkscape:connector-curvature="0"
         id="path3-7"
         d="m -309.03333,121.46786 h -16.93334 c -1.05833,0 -2.02935,0.39687 -2.91041,1.19062 -0.88107,0.79375 -1.32292,1.8071 -1.32292,3.04271 0,1.05833 0.44185,2.02935 1.32292,2.91042 0.88106,0.88106 1.85208,1.32291 2.91041,1.32291 h 16.93334 c 1.2356,0 2.24896,-0.44185 3.04271,-1.32291 0.79375,-0.88107 1.19062,-1.85209 1.19062,-2.91042 0,-2.82311 -1.41023,-4.23333 -4.23333,-4.23333 z" />
      <path
         style="fill:#000000;fill-rule:evenodd;stroke:none;stroke-width:0.26458332"
         inkscape:connector-curvature="0"
         id="path4-3"
         d="m -309.03333,87.601191 h -16.93334 c -1.05833,0 -2.02935,0.39687 -2.91041,1.19062 -0.88107,0.79375 -1.32292,1.80711 -1.32292,3.04271 0,1.05833 0.44185,2.02935 1.32292,2.91042 0.88106,0.88106 1.85208,1.32291 2.91041,1.32291 h 16.93334 c 1.2356,0 2.24896,-0.44185 3.04271,-1.32291 0.79375,-0.88107 1.19062,-1.85209 1.19062,-2.91042 0,-2.8231 -1.41023,-4.23333 -4.23333,-4.23333 z" />
      <path
         style="fill:#000000;fill-rule:evenodd;stroke:none;stroke-width:0.26458332"
         inkscape:connector-curvature="0"
         id="path5-0"
         d="m -370.41667,172.79702 4.7625,4.7625 9.78959,-9.78958 9.525,9.78958 4.7625,-4.7625 -9.78959,-9.525 9.78959,-9.525 -4.7625,-4.7625 -9.525,9.78959 -9.78959,-9.78959 -4.7625,4.7625 9.78959,9.525 z" />
      <path
         style="fill:#000000;fill-rule:evenodd;stroke:none;stroke-width:0.26458332"
         inkscape:connector-curvature="0"
         id="path6-4"
         d="m -360.62708,139.72411 19.05,-19.57917 -4.7625,-5.02708 -14.2875,14.55208 -5.02709,-4.49792 -4.7625,4.7625 z" />
      <path
         style="fill:#000000;fill-rule:evenodd;stroke:none;stroke-width:0.26458332"
         inkscape:connector-curvature="0"
         id="path7"
         d="m -360.62708,105.85744 19.05,-19.314589 -4.7625,-5.02708 -14.2875,14.55208 -5.02709,-4.49791 -4.7625,5.02708 z" />
    </g>
    <g
       id="g4740"
       transform="translate(-653.9177,60.498381)">
      <path
         style="fill:#000000;fill-rule:evenodd;stroke:none;stroke-width:0.26458332"
         inkscape:connector-curvature="0"
         id="path0-9"
         d="m -107.48594,-111.51667 -12.17083,35.189586 c -0.88106,2.116667 -1.89706,3.836459 -3.04271,5.159375 -1.14564,1.322917 -3.65919,1.984375 -7.54062,1.984375 h -48.94792 c -3.88144,0 -6.43731,-0.706437 -7.67291,-2.116666 -1.23561,-1.41023 -2.29394,-3.352271 -3.175,-5.820834 l -17.19792,-46.037496 c -1.23561,-4.05607 -2.55852,-7.36336 -3.96875,-9.92188 -1.41023,-2.55852 -3.88144,-3.83646 -7.40833,-3.83646 h -12.7 c -2.82311,0 -4.23334,1.41023 -4.23334,4.23334 0,1.05833 0.39688,2.02935 1.19063,2.91041 0.79375,0.88107 1.8071,1.32292 3.04271,1.32292 h 6.35 c 2.99772,0 5.15937,1.71979 6.48229,5.15938 1.32291,3.43958 2.77812,7.09877 4.36562,10.9802 l 19.05,46.831253 c 0.52917,1.235604 0.3519,2.468562 -0.52916,3.704167 l -1.5875,2.910416 c -1.41023,2.645834 -2.9554,5.378979 -4.63021,8.202084 -1.67482,2.823104 -2.91042,5.336645 -3.70417,7.540625 -0.79375,2.203979 -0.88106,4.056062 -0.26458,5.55625 0.61648,1.500188 2.42623,2.248958 5.42396,2.248958 h 70.64374 4.23334 4.23333 c 1.2356,0 2.24896,-0.44185 3.04271,-1.32292 0.79375,-0.881059 1.19062,-1.85208 1.19062,-2.910413 0,-2.823105 -1.41023,-4.233334 -4.23333,-4.233334 h -4.23333 -4.23334 -60.06041 c -1.76477,0 -2.86544,-0.441854 -3.30729,-1.322916 -0.44186,-0.881063 -0.44186,-1.984375 0,-3.307292 0.44185,-1.322917 1.10331,-2.733146 1.98437,-4.233333 0.88106,-1.500188 1.76477,-2.955396 2.64584,-4.365625 1.5875,-2.468563 3.96875,-3.704167 7.14375,-3.704167 h 59.79583 c 2.99773,0 5.11439,-1.410229 6.35,-4.233333 l 14.55208,-36.77708 c 0.881058,-2.46857 0.616478,-4.71752 -0.79375,-6.74688 -1.41023,-2.02935 -3.43958,-3.04271 -6.08542,-3.04271 z" />
      <path
         style="fill:#000000;fill-rule:evenodd;stroke:none;stroke-width:0.26458332"
         inkscape:connector-curvature="0"
         id="path1-8"
         d="m -125.4776,-26.849997 c -2.46857,0 -4.49792,0.79375 -6.08542,2.38125 -1.5875,1.5875 -2.38125,3.61685 -2.38125,6.08541 0,2.29394 0.79375,4.27832 2.38125,5.95313 1.5875,1.67481 3.61685,2.51354 6.08542,2.51354 2.46856,0 4.49791,-0.83873 6.08541,-2.51354 1.5875,-1.67481 2.38125,-3.65919 2.38125,-5.95313 0,-2.46856 -0.79375,-4.49791 -2.38125,-6.08541 -1.5875,-1.5875 -3.61685,-2.38125 -6.08541,-2.38125 z" />
      <path
         style="fill:#000000;fill-rule:evenodd;stroke:none;stroke-width:0.26458332"
         inkscape:connector-curvature="0"
         id="path2-5"
         d="m -201.6776,-26.849997 c -2.46856,0 -4.49792,0.79375 -6.08542,2.38125 -1.5875,1.5875 -2.38125,3.61685 -2.38125,6.08541 0,2.29394 0.79375,4.27832 2.38125,5.95313 1.5875,1.67481 3.61686,2.51354 6.08542,2.51354 2.46856,0 4.49792,-0.83873 6.08542,-2.51354 1.5875,-1.67481 2.38125,-3.65919 2.38125,-5.95313 0,-2.46856 -0.79375,-4.49791 -2.38125,-6.08541 -1.5875,-1.5875 -3.61686,-2.38125 -6.08542,-2.38125 z" />
      <path
         style="fill:#000000;fill-rule:evenodd;stroke:none;stroke-width:0.26458332"
         inkscape:connector-curvature="0"
         id="path3-5"
         d="m -159.34427,-103.05 v 25.4 h 8.46667 v -25.4 h 25.4 v -8.46667 h -25.4 v -25.4 h -8.46667 v 25.4 h -25.4 v 8.46667 z" />
    </g>
    <g
       id="g4764"
       transform="matrix(0.84216367,0,0,0.84216367,-672.3148,89.387718)">
      <path
         style="fill:#000000;fill-rule:evenodd;stroke:none;stroke-width:0.26458332"
         inkscape:connector-curvature="0"
         id="path0-3"
         d="m -205.98513,306.32211 v -50.80006 h 50.8 v -8.46666 h -50.8 c -2.29394,0 -4.27832,0.79375 -5.95313,2.38125 -1.67481,1.5875 -2.51354,3.61685 -2.51354,6.08541 v 50.80006 z" />
      <path
         style="fill:#000000;fill-rule:evenodd;stroke:none;stroke-width:0.26458332"
         inkscape:connector-curvature="0"
         id="path1-3"
         d="m -104.38514,306.32211 v 50.79999 h -50.79999 v 8.46667 h 50.79999 c 2.46857,0 4.497922,-0.83873 6.085422,-2.51354 1.5875,-1.67481 2.38125,-3.65919 2.38125,-5.95313 v -50.79999 z" />
      <path
         style="fill:#000000;fill-rule:evenodd;stroke:none;stroke-width:0.26458332"
         inkscape:connector-curvature="0"
         id="path2-9"
         d="m -176.3518,365.58877 h -32.54375 l 35.18958,-35.45416 c 1.76477,-1.76477 1.76477,-3.88144 0,-6.35 -2.11666,-1.5875 -4.23333,-1.50019 -6.35,0.26458 l -34.39583,34.925 v -31.22083 c 0,-1.23561 -0.44185,-2.24896 -1.32292,-3.04271 -0.88106,-0.79375 -1.85208,-1.27794 -2.91041,-1.45521 -2.82311,0.3519 -4.23334,1.9394 -4.23334,4.7625 v 37.30625 c 0,2.46856 0.79375,4.54289 2.38125,6.2177 1.5875,1.67482 3.61686,2.51355 6.08542,2.51355 h 38.1 c 2.8231,-0.3519 4.23333,-1.9394 4.23333,-4.7625 -0.35189,-2.46857 -1.76477,-3.70417 -4.23333,-3.70417 z" />
      <path
         style="fill:#000000;fill-rule:evenodd;stroke:none;stroke-width:0.26458332"
         inkscape:connector-curvature="0"
         id="path3-3"
         d="m -95.918468,238.58872 h -38.100002 c -2.8231,0.3519 -4.23333,1.9394 -4.23333,4.7625 0.3519,2.46856 1.76477,3.70417 4.23333,3.70417 h 30.69167 l -33.3375,35.45422 c -1.76477,1.76477 -1.76477,3.88144 0,6.35 2.11667,1.5875 4.23333,1.50019 6.35,-0.26459 l 34.395832,-34.92505 v 31.75005 c 0,1.23561 0.44185,2.24896 1.32292,3.04271 0.88106,0.79375 1.85208,1.27794 2.91041,1.45521 2.82311,-0.35189 4.23334,-1.93939 4.23334,-4.7625 v -37.83547 c 0,-2.46856 -0.79375,-4.5429 -2.38125,-6.21771 -1.5875,-1.67481 -3.61686,-2.51354 -6.08542,-2.51354 z" />
    </g>
    <g
       id="g4758"
       transform="translate(-733.53361,42.06246)">
      <path
         id="path0-4"
         transform="matrix(0.26458333,0,0,0.26458333,-222.91847,238.58872)"
         d="m -630.02148,32.970703 c -9.33003,0 -17,3 -23,9 -6,6 -9,13.669972 -9,23 V 224.9707 c 0,5.33001 1.66997,10.67 5,16 -3.33003,5.33001 -5,10.67 -5,16 v 96 c 0,9.32999 3,17 9,23 6,6 13.66997,9 23,9 h 33 c 3.99998,18.67 13.32999,34 28,46 14.67001,12 31.66998,18 51,18 19.32997,0 36.32999,-6 51,-18 14.67001,-12 23.67001,-27.33 27,-46 h 67 c 4.00002,18.67 13.32999,34 28,46 14.66997,12 31.66998,18 51,18 19.32997,0 36.32999,-6 51,-18 14.66997,-12 23.66997,-27.33 27,-46 h 34 c 8.67001,0 16.17001,-3 22.5,-9 6.33002,-6 9.5,-13.67001 9.5,-23 v -96 c 0,-9.33003 -3.16998,-17 -9.5,-23 -6.32999,-6 -13.82999,-9 -22.5,-9 h -6 l -8,-53 c -2.66998,-15.32999 -7.82998,-29.50001 -15.5,-42.5 -7.66999,-12.99998 -17.17,-24.33 -28.5,-33.999997 -11.33001,-9.669997 -23.99999,-17.169997 -38,-22.5 -14.00002,-5.330003 -29.00002,-8 -45,-8 h -19 c 0,-9.330028 -3.16998,-17 -9.5,-23 -6.32999,-6 -13.82999,-9 -22.5,-9 z m 0,32 h 256 v 32 127.999997 h -256 z m 288,32 h 19 c 23.33,0 44,7.499997 62,22.499997 18,15 28.99997,34.17 33,57.5 l 8,48 h -122 z m -288,159.999997 h 256 192 v 96 h -34 c -3.33003,-18 -12.33003,-33.16997 -27,-45.5 -14.67001,-12.32999 -31.67003,-18.5 -51,-18.5 -19.33002,0 -36.33003,6.17001 -51,18.5 -14.67001,12.33003 -23.99998,27.5 -28,45.5 h -67 c -3.32999,-18 -12.32999,-33.16997 -27,-45.5 -14.67001,-12.32999 -31.67003,-18.5 -51,-18.5 -19.33002,0 -36.32999,6.17001 -51,18.5 -14.67001,12.33003 -24.00002,27.5 -28,45.5 h -33 z m 112,64 c 13.32997,0 24.67001,4.66997 34,14 9.32999,9.32999 14,20.66999 14,34 0,13.32998 -4.67001,24.67001 -14,34 -9.32999,9.33003 -20.67003,14 -34,14 -13.33002,0 -24.67001,-4.66997 -34,-14 -9.33003,-9.32999 -14,-20.67002 -14,-34 0,-13.33001 4.66997,-24.67001 14,-34 9.32999,-9.33003 20.66998,-14 34,-14 z m 224,0 c 13.32997,0 24.67001,4.66997 34,14 9.32999,9.32999 14,20.66999 14,34 0,13.32998 -4.67001,24.67001 -14,34 -9.32999,9.33003 -20.67003,14 -34,14 -13.33002,0 -24.67001,-4.66997 -34,-14 -9.32999,-9.32999 -14,-20.67002 -14,-34 0,-13.33001 4.67001,-24.67001 14,-34 9.32999,-9.33003 20.66998,-14 34,-14 z"
         style="fill:#000000;fill-rule:evenodd;stroke:none;stroke-width:0.99999994"
         inkscape:connector-curvature="0" />
    </g>
    <g
       id="g4774"
       transform="translate(-341.45108,12.828936)">
      <path
         id="path0-1"
         d="m -477.23234,155.44108 c -1.46269,0 -2.66482,0.49693 -3.60546,1.48931 -0.94064,0.99238 -1.41129,2.16822 -1.41129,3.52744 v 60.20097 c 0,1.4627 0.47065,2.66535 1.41129,3.60598 0.94064,0.94064 2.14277,1.41077 3.60546,1.41077 h 60.20098 c 1.35922,0 2.53506,-0.47013 3.52743,-1.41077 0.99238,-0.94063 1.48931,-2.14328 1.48931,-3.60598 v -60.20097 c 0,-1.35922 -0.49693,-2.53506 -1.48931,-3.52744 -0.99237,-0.99238 -2.16821,-1.48931 -3.52743,-1.48931 z m 0,5.01675 h 60.20098 v 60.20097 h -60.20098 z"
         style="fill:#000000;fill-rule:evenodd;stroke:#000000;stroke-width:2;stroke-miterlimit:4;stroke-dasharray:none;stroke-opacity:1"
         inkscape:connector-curvature="0" />
      <path
         style="fill:#000000;fill-rule:evenodd;stroke:#000000;stroke-width:2;stroke-miterlimit:4;stroke-dasharray:none;stroke-opacity:1"
         inkscape:connector-curvature="0"
         id="path2-8"
         d="m -449.64009,193.06685 v 17.55859 h 5.01675 v -17.55859 h 17.55859 v -5.01675 h -17.55859 v -17.55859 h -5.01675 v 17.55859 h -17.55859 v 5.01675 z" />
      <path
         id="path0-90"
         d="m -405.01763,85.760578 c -1.46269,0 -2.66534,0.496941 -3.60598,1.489316 -0.94064,0.992373 -1.41076,2.168207 -1.41076,3.527433 V 150.9783 c 0,1.46269 0.47012,2.66534 1.41076,3.60598 0.94064,0.94063 2.14329,1.41077 3.60598,1.41077 h 60.20046 c 1.35922,0 2.53506,-0.47014 3.52743,-1.41077 0.99238,-0.94064 1.48932,-2.14329 1.48932,-3.60598 V 90.777327 c 0,-1.359226 -0.49694,-2.53506 -1.48932,-3.527433 -0.99237,-0.992375 -2.16821,-1.489316 -3.52743,-1.489316 z m 0,5.016749 h 60.20046 V 150.9783 h -60.20046 z"
         style="fill:#000000;fill-rule:evenodd;stroke:#000000;stroke-width:2;stroke-miterlimit:4;stroke-dasharray:none;stroke-opacity:1"
         inkscape:connector-curvature="0" />
      <path
         style="fill:#000000;fill-rule:evenodd;stroke:#000000;stroke-width:2;stroke-miterlimit:4;stroke-dasharray:none;stroke-opacity:1"
         inkscape:connector-curvature="0"
         id="path2-7"
         d="m -394.98433,123.38633 h 40.13394 v -5.01676 h -40.13394 z" />
    </g>
    <path
       style="fill:#000000;fill-rule:evenodd;stroke:none;stroke-width:0.99999994"
       d="M -953.25977 1471.3613 C -962.58979 1471.3613 -970.25977 1474.3613 -976.25977 1480.3613 C -982.25977 1486.3613 -985.25977 1494.0313 -985.25977 1503.3613 L -985.25977 1531.3613 C -990.58977 1532.6913 -995.58972 1534.5313 -1000.2598 1536.8613 C -1004.9297 1539.1913 -1009.5897 1541.3613 -1014.2598 1543.3613 L -1034.2598 1523.3613 C -1040.2598 1517.3613 -1047.9298 1514.3613 -1057.2598 1514.3613 C -1065.9298 1514.3613 -1073.2598 1517.3613 -1079.2598 1523.3613 L -1125.2598 1569.3613 C -1131.2598 1575.3613 -1134.2598 1582.6913 -1134.2598 1591.3613 C -1134.2598 1600.0313 -1131.2598 1607.6913 -1125.2598 1614.3613 L -1105.2598 1634.3613 C -1107.2598 1639.0314 -1109.4298 1643.6913 -1111.7598 1648.3613 C -1114.0898 1653.0313 -1115.9297 1658.0313 -1117.2598 1663.3613 L -1145.2598 1663.3613 C -1154.5898 1663.3613 -1162.2598 1666.3613 -1168.2598 1672.3613 C -1174.2598 1678.3613 -1177.2598 1686.0313 -1177.2598 1695.3613 L -1177.2598 1759.3613 C -1177.2598 1768.0313 -1174.2598 1775.5313 -1168.2598 1781.8613 C -1162.2598 1788.1914 -1154.5898 1791.3613 -1145.2598 1791.3613 L -1117.2598 1791.3613 C -1115.9297 1796.6913 -1114.0898 1801.6913 -1111.7598 1806.3613 C -1109.4298 1811.0313 -1107.2598 1815.6913 -1105.2598 1820.3613 L -1125.2598 1840.3613 C -1131.2598 1846.3613 -1134.2598 1853.8613 -1134.2598 1862.8613 C -1134.2598 1871.8613 -1131.2598 1879.3613 -1125.2598 1885.3613 L -1079.2598 1931.3613 C -1073.2598 1937.3613 -1065.9298 1940.3613 -1057.2598 1940.3613 C -1047.9298 1940.3613 -1040.2598 1937.3613 -1034.2598 1931.3613 L -1014.2598 1910.3613 C -1009.5897 1913.0313 -1004.9297 1915.3613 -1000.2598 1917.3613 C -995.58972 1919.3613 -990.58977 1921.3613 -985.25977 1923.3613 L -985.25977 1951.3613 C -985.25977 1960.0313 -982.25977 1967.5313 -976.25977 1973.8613 C -970.25977 1980.1914 -962.58979 1983.3613 -953.25977 1983.3613 L -889.25977 1983.3613 C -879.92978 1983.3613 -872.25977 1980.1914 -866.25977 1973.8613 C -860.25977 1967.5313 -857.25977 1960.0313 -857.25977 1951.3613 L -857.25977 1923.3613 C -851.92976 1921.3613 -846.92979 1919.3613 -842.25977 1917.3613 C -837.58978 1915.3613 -832.92975 1913.0313 -828.25977 1910.3613 L -808.25977 1931.3613 C -802.25977 1937.3613 -794.58979 1940.3613 -785.25977 1940.3613 C -776.58979 1940.3613 -769.25977 1937.3613 -763.25977 1931.3613 L -717.25977 1885.3613 C -711.25977 1879.3613 -708.25977 1871.8613 -708.25977 1862.8613 C -708.25977 1853.8613 -711.25977 1846.3613 -717.25977 1840.3613 L -737.25977 1820.3613 C -735.25979 1815.6913 -733.25978 1811.0313 -731.25977 1806.3613 C -729.25979 1801.6913 -727.25978 1796.6913 -725.25977 1791.3613 L -697.25977 1791.3613 C -687.92978 1791.3613 -680.25977 1788.1914 -674.25977 1781.8613 C -668.25977 1775.5313 -665.25977 1768.0313 -665.25977 1759.3613 L -665.25977 1695.3613 C -665.25977 1686.0313 -668.25977 1678.3613 -674.25977 1672.3613 C -680.25977 1666.3613 -687.92978 1663.3613 -697.25977 1663.3613 L -725.25977 1663.3613 C -727.25978 1658.0313 -729.25979 1653.0313 -731.25977 1648.3613 C -733.25978 1643.6913 -735.25979 1639.0314 -737.25977 1634.3613 L -717.25977 1614.3613 C -711.25977 1607.6913 -708.25977 1600.0313 -708.25977 1591.3613 C -708.25977 1582.6913 -711.25977 1575.3613 -717.25977 1569.3613 L -763.25977 1523.3613 C -769.25977 1517.3613 -776.58979 1514.3613 -785.25977 1514.3613 C -794.58979 1514.3613 -802.25977 1517.3613 -808.25977 1523.3613 L -828.25977 1543.3613 C -832.92975 1541.3613 -837.58978 1539.1913 -842.25977 1536.8613 C -846.92979 1534.5313 -851.92976 1532.6913 -857.25977 1531.3613 L -857.25977 1503.3613 C -857.25977 1494.0313 -860.25977 1486.3613 -866.25977 1480.3613 C -872.25977 1474.3613 -879.92978 1471.3613 -889.25977 1471.3613 L -953.25977 1471.3613 z M -953.25977 1503.3613 L -889.25977 1503.3613 L -889.25977 1531.3613 L -889.25977 1554.3613 L -867.25977 1562.3613 C -863.25974 1563.6913 -859.25975 1565.1913 -855.25977 1566.8613 C -851.25974 1568.5313 -847.25975 1570.3613 -843.25977 1572.3613 L -822.25977 1582.3613 L -805.25977 1566.3613 L -785.25977 1546.3613 L -740.25977 1591.3613 L -760.25977 1611.3613 L -777.25977 1628.3613 L -766.25977 1648.3613 C -764.25975 1652.3613 -762.42979 1656.5314 -760.75977 1660.8613 C -759.08978 1665.1913 -757.58974 1669.3613 -756.25977 1673.3613 L -749.25977 1695.3613 L -725.25977 1695.3613 L -697.25977 1695.3613 L -697.25977 1759.3613 L -725.25977 1759.3613 L -749.25977 1759.3613 L -756.25977 1781.3613 C -757.58974 1785.3614 -759.08978 1789.3613 -760.75977 1793.3613 C -762.42979 1797.3614 -764.25975 1801.3613 -766.25977 1805.3613 L -777.25977 1826.3613 L -760.25977 1843.3613 L -740.25977 1863.3613 L -785.25977 1908.3613 L -805.25977 1888.3613 L -822.25977 1871.3613 L -843.25977 1882.3613 C -847.25975 1884.3613 -851.25974 1886.1913 -855.25977 1887.8613 C -859.25975 1889.5313 -863.25974 1891.0314 -867.25977 1892.3613 L -889.25977 1899.3613 L -889.25977 1923.3613 L -889.25977 1951.3613 L -953.25977 1951.3613 L -953.25977 1923.3613 L -953.25977 1899.3613 L -975.25977 1892.3613 C -979.25975 1891.0314 -983.42975 1889.5313 -987.75977 1887.8613 C -992.08974 1886.1913 -996.25972 1884.3613 -1000.2598 1882.3613 L -1020.2598 1871.3613 L -1037.2598 1888.3613 L -1057.2598 1908.3613 L -1102.2598 1863.3613 L -1082.2598 1843.3613 L -1066.2598 1826.3613 L -1076.2598 1805.3613 C -1078.2598 1801.3613 -1080.0898 1797.3614 -1081.7598 1793.3613 C -1083.4298 1789.3613 -1084.9297 1785.3614 -1086.2598 1781.3613 L -1094.2598 1759.3613 L -1117.2598 1759.3613 L -1145.2598 1759.3613 L -1145.2598 1695.3613 L -1117.2598 1695.3613 L -1094.2598 1695.3613 L -1086.2598 1673.3613 C -1084.9297 1669.3613 -1083.4298 1665.1913 -1081.7598 1660.8613 C -1080.0898 1656.5314 -1078.2598 1652.3613 -1076.2598 1648.3613 L -1066.2598 1628.3613 L -1082.2598 1611.3613 L -1102.2598 1591.3613 L -1057.2598 1546.3613 L -1037.2598 1566.3613 L -1020.2598 1582.3613 L -1000.2598 1572.3613 C -996.25972 1570.3613 -992.08974 1568.5313 -987.75977 1566.8613 C -983.42975 1565.1913 -979.25975 1563.6913 -975.25977 1562.3613 L -953.25977 1554.3613 L -953.25977 1531.3613 L -953.25977 1503.3613 z M -921.25977 1631.3613 C -947.92974 1631.3613 -970.58977 1640.6913 -989.25977 1659.3613 C -1007.9298 1678.0313 -1017.2598 1700.6914 -1017.2598 1727.3613 C -1017.2598 1754.0313 -1007.9298 1776.6913 -989.25977 1795.3613 C -970.58977 1814.0313 -947.92974 1823.3613 -921.25977 1823.3613 C -894.58976 1823.3613 -871.92976 1814.0313 -853.25977 1795.3613 C -834.58977 1776.6913 -825.25977 1754.0313 -825.25977 1727.3613 C -825.25977 1700.6914 -834.58977 1678.0313 -853.25977 1659.3613 C -871.92976 1640.6913 -894.58976 1631.3613 -921.25977 1631.3613 z M -921.25977 1663.3613 C -903.92976 1663.3613 -888.92976 1669.6913 -876.25977 1682.3613 C -863.58977 1695.0313 -857.25977 1710.0313 -857.25977 1727.3613 C -857.25977 1744.6913 -863.58977 1759.6913 -876.25977 1772.3613 C -888.92976 1785.0313 -903.92976 1791.3613 -921.25977 1791.3613 C -938.58977 1791.3613 -953.58977 1785.0313 -966.25977 1772.3613 C -978.92976 1759.6913 -985.25977 1744.6913 -985.25977 1727.3613 C -985.25977 1710.0313 -978.92976 1695.0313 -966.25977 1682.3613 C -953.58977 1669.6913 -938.58977 1663.3613 -921.25977 1663.3613 z "
       id="path0-2"
       transform="matrix(0.26458333,0,0,0.26458333,-510.3634,50.14426)" />
    <path
       style="fill:#000000;fill-rule:evenodd;stroke:none;stroke-width:0.99999994"
       d="M -1970.3184 1471.3613 C -1988.3184 1471.3613 -2003.4884 1477.6913 -2015.8184 1490.3613 C -2028.1483 1503.0314 -2034.3184 1518.0314 -2034.3184 1535.3613 L -2146.3184 1535.3613 C -2156.9883 1535.3613 -2162.3184 1540.6913 -2162.3184 1551.3613 C -2162.3184 1562.0313 -2156.9883 1567.3613 -2146.3184 1567.3613 L -2141.3184 1567.3613 L -2188.3184 1759.3613 L -2193.3184 1759.3613 C -2189.3185 1778.0313 -2179.9882 1793.3613 -2165.3184 1805.3613 C -2150.6485 1817.3613 -2133.648 1823.3613 -2114.3184 1823.3613 C -2094.9883 1823.3613 -2078.1484 1817.3613 -2063.8184 1805.3613 C -2049.4883 1793.3613 -2040.3182 1778.0313 -2036.3184 1759.3613 L -2040.3184 1759.3613 L -2088.3184 1567.3613 L -2026.3184 1567.3613 C -2020.3184 1578.0314 -2012.3186 1585.6913 -2002.3184 1590.3613 L -2002.3184 1951.3613 L -2114.3184 1951.3613 C -2124.9883 1951.3613 -2130.3184 1956.6913 -2130.3184 1967.3613 C -2130.3184 1978.0314 -2124.9883 1983.3613 -2114.3184 1983.3613 L -1826.3184 1983.3613 C -1822.3183 1983.3613 -1818.6483 1981.8613 -1815.3184 1978.8613 C -1811.9884 1975.8613 -1810.3184 1972.0314 -1810.3184 1967.3613 C -1810.3184 1962.6913 -1811.9884 1958.8613 -1815.3184 1955.8613 C -1818.6483 1952.8613 -1822.3183 1951.3613 -1826.3184 1951.3613 L -1938.3184 1951.3613 L -1938.3184 1590.3613 C -1928.9882 1585.0313 -1921.3184 1577.3613 -1915.3184 1567.3613 L -1855.3184 1567.3613 L -1902.3184 1759.3613 L -1906.3184 1759.3613 C -1902.9886 1778.0313 -1893.9882 1793.3613 -1879.3184 1805.3613 C -1864.6481 1817.3613 -1847.6484 1823.3613 -1828.3184 1823.3613 C -1808.9884 1823.3613 -1791.9884 1817.3613 -1777.3184 1805.3613 C -1762.6484 1793.3613 -1753.6484 1778.0313 -1750.3184 1759.3613 L -1754.3184 1759.3613 L -1801.3184 1567.3613 L -1794.3184 1567.3613 C -1790.3184 1567.3613 -1786.6484 1565.8613 -1783.3184 1562.8613 C -1779.9884 1559.8613 -1778.3184 1556.0313 -1778.3184 1551.3613 C -1778.3184 1546.6913 -1779.9884 1542.8613 -1783.3184 1539.8613 C -1786.6484 1536.8613 -1790.3184 1535.3613 -1794.3184 1535.3613 L -1906.3184 1535.3613 C -1906.3184 1518.0314 -1912.6482 1503.0314 -1925.3184 1490.3613 C -1937.9885 1477.6913 -1952.9881 1471.3613 -1970.3184 1471.3613 z M -1970.3184 1503.3613 C -1961.6481 1503.3613 -1954.1483 1506.3613 -1947.8184 1512.3613 C -1941.4884 1518.3613 -1938.3184 1526.0313 -1938.3184 1535.3613 C -1938.3184 1544.6914 -1941.4884 1552.3613 -1947.8184 1558.3613 C -1954.1483 1564.3613 -1961.6481 1567.3613 -1970.3184 1567.3613 C -1979.6481 1567.3613 -1987.3184 1564.3613 -1993.3184 1558.3613 C -1999.3184 1552.3613 -2002.3184 1544.6914 -2002.3184 1535.3613 C -2002.3184 1526.0313 -1999.3184 1518.3613 -1993.3184 1512.3613 C -1987.3184 1506.3613 -1979.6481 1503.3613 -1970.3184 1503.3613 z M -2125.3184 1567.3613 L -2104.3184 1567.3613 L -2057.3184 1759.3613 L -2172.3184 1759.3613 L -2125.3184 1567.3613 z M -1838.3184 1567.3613 L -1818.3184 1567.3613 L -1771.3184 1759.3613 L -1885.3184 1759.3613 L -1838.3184 1567.3613 z "
       id="path0-5"
       transform="matrix(0.26458333,0,0,0.26458333,-510.3634,50.14426)" />
  </g>
</svg>
